<svg class="svg-icon" style="width: 1.28515625em; height: 1em;vertical-align: middle;fill: currentColor;overflow: hidden;" viewBox="0 0 1316 1024" version="1.1" xmlns="http://www.w3.org/2000/svg"><path d="M372.004571 569.709714c0 29.696-23.990857 53.723429-53.138285 53.723429a53.650286 53.650286 0 0 1-53.723429-53.723429 53.394286 53.394286 0 1 1 106.861714 0z m659.419429-0.548571c0 29.696-23.990857 53.723429-53.723429 53.723428s-53.723429-23.990857-53.723428-53.723428 23.990857-53.138286 53.723428-53.138286 53.723429 23.442286 53.723429 53.138286z m-594.285714 0.548571a110.738286 110.738286 0 0 0-110.299429-110.299428 110.372571 110.372571 0 0 0-110.299428 110.299428 110.006857 110.006857 0 0 0 110.299428 110.299429 110.372571 110.372571 0 0 0 110.299429-110.299429z m658.870857-0.548571a110.372571 110.372571 0 0 0-110.299429-110.299429 110.738286 110.738286 0 0 0-110.299428 110.299429 110.372571 110.372571 0 0 0 110.299428 110.299428 110.006857 110.006857 0 0 0 110.299429-110.299428z m-610.304 0.548571c0 87.990857-70.838857 159.414857-158.866286 159.414857s-159.414857-71.424-159.414857-159.414857c0-87.442286 71.424-158.866286 159.414857-158.866285s158.866286 71.424 158.866286 158.866285z m659.456-0.548571a159.012571 159.012571 0 0 1-159.414857 158.866286 158.866286 158.866286 0 0 1 0-317.732572 158.976 158.976 0 0 1 159.414857 158.866286z m-550.875429 1.682286A264.118857 264.118857 0 0 0 330.276571 306.834286c-145.152 0-263.424 118.272-263.424 264.009143s118.272 264.009143 263.424 264.009142a264.118857 264.118857 0 0 0 264.009143-264.009142z m381.732572-327.424c-94.281143-41.142857-200.557714-63.414857-317.696-63.414858s-233.728 22.272-327.424 62.866286c181.138286 0.585143 327.424 146.870857 327.424 328.009143a327.314286 327.314286 0 0 1 317.696-327.424z m273.700571 327.424c0-145.700571-117.723429-264.009143-263.424-264.009143s-264.009143 118.272-264.009143 264.009143 118.272 264.009143 264.009143 264.009142 263.424-118.272 263.424-264.009142z m-151.990857-323.401143H1316.571429c-34.304 40.009143-59.428571 93.696-65.718858 130.852571a326.253714 326.253714 0 0 1 62.866286 192.585143c0 181.138286-146.870857 327.424-327.424 327.424a326.473143 326.473143 0 0 1-254.281143-120.576s-26.843429 32-73.728 102.290286c-8.009143-16.566857-48.566857-74.276571-73.142857-102.838857a326.473143 326.473143 0 0 1-254.866286 121.161142c-180.553143 0-327.424-146.285714-327.424-327.424 0-72.009143 23.442286-138.276571 62.866286-192.585142C59.428571 341.174857 34.304 287.488 0 247.478857h208.566857C320.585143 172.617143 483.437714 125.769143 658.285714 125.769143s327.424 46.848 439.442286 121.709714z" fill="#ffffff" /></svg>